# xmcd
#
# Track frame offsets:
#	150
#	17886
#	36946
#	84021
#	128355
#	170238
#
# Disc length: 2657 seconds
#
# Revision: 1
# Processed by: cddbd v1.5.2PL0 Copyright (c) Steve Scherf et al.
# Submitted via: audiograbber 1.83.01
#
DISCID=3f0a5f06
DTITLE=Grateful Dead - 79-11-02 Nassau Veterans Memorial Coliseum, Uniondale NY
DYEAR=1900
DGENRE=
TTITLE0=Drums
TTITLE1=Space
TTITLE2=Not Fade Away
TTITLE3=Stella Blue
TTITLE4=Sugar Magnolia
TTITLE5=Casey Jones
EXTD=
EXTT0=
EXTT1=
EXTT2=
EXTT3=
EXTT4=
EXTT5=
PLAYORDER=
